<?xml version="1.0" encoding="UTF-8" standalone="no"?>
<svg width="64px" height="22px" viewBox="0 0 64 22" version="1.1" xmlns="http://www.w3.org/2000/svg" xmlns:xlink="http://www.w3.org/1999/xlink">
    <!-- Generator: sketchtool 40.1 (33804) - http://www.bohemiancoding.com/sketch -->
    <title>42513A7D-B8A8-433B-A1D1-00C408CAEB6D</title>
    <desc>Created with sketchtool.</desc>
    <defs></defs>
    <g id="Symbols" stroke="none" stroke-width="1" fill="none" fill-rule="evenodd">
        <g id="EPAM-Logo">
            <g>
                <path d="M12.0286722,7.63202247 L15.5522458,7.63202247 L15.5522458,3.99880899 C15.5522458,2.98507865 15.0306215,2.47808989 13.9863546,2.47808989 L13.5948181,2.47808989 C12.5508057,2.47808989 12.0286722,2.98507865 12.0286722,3.99880899 L12.0286722,7.63202247 L12.0286722,7.63202247 Z M12.0207804,9.95042697 L12.0286722,13.9465169 C12.0286722,14.9602472 12.5508057,15.467236 13.5948181,15.467236 L14.0515258,15.467236 C15.0957927,15.467236 15.6176716,14.9602472 15.6176716,13.9465169 L15.6176716,11.9823371 L18.0320616,11.9823371 L18.0320616,13.8515955 C18.0320616,16.4176854 16.6945242,17.716427 14.0515258,17.716427 L13.5296469,17.716427 C10.8866485,17.716427 9.54911102,16.4176854 9.54911102,14.1519326 L9.54911102,4.39431461 C9.54911102,1.52764045 10.8866485,0.228651685 13.5296469,0.228651685 L14.0515258,0.228651685 C16.6945242,0.228651685 18.0320616,1.52764045 18.0320616,4.09397753 L18.0241698,9.95042697 L12.0207804,9.95042697 L12.0207804,9.95042697 Z" id="Fill-1" fill="#FFFFFF"></path>
                <path d="M22.1228285,14.548427 C22.80789,15.1186966 23.5909629,15.4353483 24.4066215,15.4353483 C25.3202914,15.4353483 25.8424249,15.0237753 25.8424249,14.0416854 L25.8424249,3.90388764 C25.8424249,2.92155056 25.3202914,2.50973034 24.4066215,2.50973034 C23.5909629,2.50973034 22.80789,2.82662921 22.1228285,3.39689888 L22.1228285,14.548427 L22.1228285,14.548427 Z M19.6430127,0.418741573 L22.1228285,0.418741573 L22.1228285,1.52764045 C22.7101332,0.925730337 23.72156,0.228651685 25.1571088,0.228651685 C27.2779737,0.228651685 28.3219861,1.59092135 28.3219861,3.61862921 L28.3219861,14.3266966 C28.3219861,16.3541573 27.2779737,17.716427 25.1571088,17.716427 C23.72156,17.716427 22.7101332,17.051236 22.1228285,16.4809663 L22.1228285,22 L19.6430127,22 L19.6430127,0.418741573 L19.6430127,0.418741573 Z" id="Fill-3" fill="#FFFFFF"></path>
                <path d="M35.7761609,14.4144527 L35.7761609,8.77152138 L33.4493396,9.59908869 C32.5049811,9.94761614 32.2015971,10.3910617 32.2015971,11.3731181 L32.2015971,13.9710071 C32.2015971,14.7946195 32.6399647,15.2061785 33.4493396,15.2061785 C34.2247713,15.2061785 34.9331059,14.9528164 35.7761609,14.4144527 L35.7761609,14.4144527 Z M29.6384888,11.3414788 C29.6384888,9.21892186 30.3805035,8.3636701 32.3363175,7.73014113 L35.7761609,6.62128003 L35.7761609,3.77002886 C35.7761609,2.75633306 35.23649,2.21772219 34.1574111,2.21772219 L33.7398305,2.21772219 C32.6607516,2.21772219 32.1210806,2.75633306 32.1210806,3.77002886 L32.1210806,6.1929126 L29.6255956,6.1929126 L29.6255956,3.86519415 C29.6255956,1.29894451 31.0083217,0 33.7398305,0 L34.2247713,0 C36.9562801,0 38.3390061,1.29894451 38.3390061,3.86519415 L38.3390061,17.2970961 L35.7761609,17.2970961 L35.7761609,16.2201215 C35.0680895,16.8536505 34.123731,17.4871795 32.6399647,17.4871795 C30.5828473,17.4871795 29.6384888,16.3783184 29.6384888,14.4777315 L29.6384888,11.3414788 L29.6384888,11.3414788 Z" id="Fill-5" fill="#FFFFFF"></path>
                <path d="M48.7277116,17.4871795 L46.2191604,17.4871795 L46.2191604,3.5553125 C46.2191604,2.6904122 45.7903813,2.3060676 45.0311975,2.3060676 C44.3379402,2.3060676 43.6119771,2.56221403 42.7206831,3.1709679 L42.7206831,17.4871795 L40.2123894,17.4871795 L40.2123894,0.1921723 L42.7206831,0.1921723 L42.7206831,1.31321903 C43.4469036,0.640740932 44.4041241,0 45.7903813,0 C47.0774913,0 47.9355647,0.512542766 48.3975645,1.40943013 C49.2888586,0.672727999 50.3449687,0 51.7971523,0 C53.7445565,0 54.7347402,1.1532837 54.7347402,3.04276973 L54.7347402,17.4871795 L52.226189,17.4871795 L52.226189,3.5553125 C52.226189,2.6904122 51.7971523,2.3060676 51.0379686,2.3060676 C50.3449687,2.3060676 49.6187482,2.56221403 48.7277116,3.1709679 L48.7277116,17.4871795" id="Fill-6" fill="#FFFFFF"></path>
                <polyline id="Fill-7" fill="#00ABBF" points="6.38983435 2.25641026 6.38983435 5.42209908 2.20450051 9.30769231 6.38983435 13.1238822 6.38983435 16.3589744 0 10.5069525 0 8.17783543 6.38983435 2.25641026"></polyline>
                <polyline id="Fill-8" fill="#00ABBF" points="63.8983435 8.17783543 63.8983435 10.5069525 57.5085092 16.3589744 57.5085092 13.1238822 61.693843 9.30769231 57.5085092 5.42209908 57.5085092 2.25641026 63.8983435 8.17783543"></polyline>
            </g>
        </g>
    </g>
</svg>