<?xml version="1.0" encoding="UTF-8" standalone="no"?>
<svg width="90px" height="32px" viewBox="0 0 90 32" version="1.1" xmlns="http://www.w3.org/2000/svg" xmlns:xlink="http://www.w3.org/1999/xlink">
    <!-- Generator: sketchtool 39.1 (31720) - http://www.bohemiancoding.com/sketch -->
    <title>8CFD32B0-3F42-494D-AFD2-444BAE9504CA</title>
    <desc>Created with sketchtool.</desc>
    <defs></defs>
    <g id="EPAM-PlugIn" stroke="none" stroke-width="1" fill="none" fill-rule="evenodd">
        <g id="ESP" transform="translate(-946.000000, -222.000000)" fill="#FFFFFF">
            <g id="Logo" transform="translate(921.000000, 100.000000)">
                <g id="Group">
                    <g id="EPAM-Logo-White" transform="translate(25.000000, 122.000000)">
                        <path d="M16.9153203,11.1011236 L21.8703457,11.1011236 L21.8703457,5.81644944 C21.8703457,4.34193258 21.1368115,3.60449438 19.6683111,3.60449438 L19.1177129,3.60449438 C17.6495705,3.60449438 16.9153203,4.34193258 16.9153203,5.81644944 L16.9153203,11.1011236 L16.9153203,11.1011236 Z M16.9042225,14.4733483 L16.9153203,20.2858427 C16.9153203,21.7603596 17.6495705,22.4977978 19.1177129,22.4977978 L19.7599581,22.4977978 C21.2284585,22.4977978 21.9623507,21.7603596 21.9623507,20.2858427 L21.9623507,17.4288539 L25.3575867,17.4288539 L25.3575867,20.1477753 C25.3575867,23.8802697 23.4766746,25.7693483 19.7599581,25.7693483 L19.0260659,25.7693483 C15.3093494,25.7693483 13.4284374,23.8802697 13.4284374,20.5846292 L13.4284374,6.39173034 C13.4284374,2.22202247 15.3093494,0.33258427 19.0260659,0.33258427 L19.7599581,0.33258427 C23.4766746,0.33258427 25.3575867,2.22202247 25.3575867,5.9548764 L25.3464888,14.4733483 L16.9042225,14.4733483 L16.9042225,14.4733483 Z" id="Fill-1"></path>
                        <path d="M31.1102276,21.1613483 C32.0735953,21.9908315 33.1747916,22.4514157 34.3218115,22.4514157 C35.6066598,22.4514157 36.34091,21.852764 36.34091,20.4242697 L36.34091,5.67838202 C36.34091,4.24952809 35.6066598,3.65051685 34.3218115,3.65051685 C33.1747916,3.65051685 32.0735953,4.11146067 31.1102276,4.94094382 L31.1102276,21.1613483 L31.1102276,21.1613483 Z M27.6229866,0.609078652 L31.1102276,0.609078652 L31.1102276,2.22202247 C31.9361248,1.34651685 33.3584437,0.33258427 35.3771843,0.33258427 C38.3596506,0.33258427 39.827793,2.31406742 39.827793,5.26346067 L39.827793,20.8388315 C39.827793,23.7878652 38.3596506,25.7693483 35.3771843,25.7693483 C33.3584437,25.7693483 31.9361248,24.8017978 31.1102276,23.9723146 L31.1102276,32 L27.6229866,32 L27.6229866,0.609078652 L27.6229866,0.609078652 Z" id="Fill-3"></path>
                        <path d="M50.3102263,20.9664767 L50.3102263,12.7585765 L47.0381338,13.9623108 C45.7101297,14.4692598 45.2834959,15.1142716 45.2834959,16.5427173 L45.2834959,20.3214649 C45.2834959,21.5194466 45.8999503,22.1180779 47.0381338,22.1180779 C48.1285846,22.1180779 49.1246802,21.7495511 50.3102263,20.9664767 L50.3102263,20.9664767 Z M41.6791249,16.4966964 C41.6791249,13.4093409 42.7225831,12.1653383 45.4729465,11.2438416 L50.3102263,9.63095277 L50.3102263,5.48367834 C50.3102263,4.00921172 49.551314,3.22577774 48.0338594,3.22577774 L47.4466366,3.22577774 C45.929182,3.22577774 45.1702696,4.00921172 45.1702696,5.48367834 L45.1702696,9.00787287 L41.6609939,9.00787287 L41.6609939,5.62210059 C41.6609939,1.88937383 43.6054523,0 47.4466366,0 L48.1285846,0 C51.9697689,0 53.9142274,1.88937383 53.9142274,5.62210059 L53.9142274,25.1594125 L50.3102263,25.1594125 L50.3102263,23.592904 C49.3145008,24.5144007 47.9864967,25.4358974 45.8999503,25.4358974 C43.007129,25.4358974 41.6791249,23.8230086 41.6791249,21.0585185 L41.6791249,16.4966964 L41.6791249,16.4966964 Z" id="Fill-5"></path>
                        <path d="M68.5233445,25.4358974 L64.9956943,25.4358974 L64.9956943,5.17136363 C64.9956943,3.91332683 64.3927237,3.35428014 63.3251215,3.35428014 C62.3502284,3.35428014 61.3293429,3.72685677 60.0759605,4.61231694 L60.0759605,25.4358974 L56.5486726,25.4358974 L56.5486726,0.279523345 L60.0759605,0.279523345 L60.0759605,1.91013677 C61.0972082,0.93198681 62.4432995,0 64.3927237,0 C66.2027221,0 67.4093878,0.74551675 68.0590751,2.05008019 C69.3124575,0.978513453 70.7976123,0 72.8397454,0 C75.5782826,0 76.9707284,1.67750356 76.9707284,4.42584688 L76.9707284,25.4358974 L73.4430783,25.4358974 L73.4430783,5.17136363 C73.4430783,3.91332683 72.8397454,3.35428014 71.7721433,3.35428014 C70.7976123,3.35428014 69.7763646,3.72685677 68.5233445,4.61231694 L68.5233445,25.4358974" id="Fill-6"></path>
                        <polyline id="Fill-7" points="8.98570456 3.28205128 8.98570456 7.88668957 3.10007885 13.5384615 8.98570456 19.0892832 8.98570456 23.7948718 0 15.2828401 0 11.8950334 8.98570456 3.28205128"></polyline>
                        <polyline id="Fill-8" points="89.8570456 11.8950334 89.8570456 15.2828401 80.871341 23.7948718 80.871341 19.0892832 86.7569668 13.5384615 80.871341 7.88668957 80.871341 3.28205128 89.8570456 11.8950334"></polyline>
                    </g>
                </g>
            </g>
        </g>
    </g>
</svg>