<?xml version="1.0" encoding="UTF-8" standalone="no"?>
<svg width="121px" height="101px" viewBox="0 0 121 101" version="1.1" xmlns="http://www.w3.org/2000/svg" xmlns:xlink="http://www.w3.org/1999/xlink">
    <!-- Generator: sketchtool 40.1 (33804) - http://www.bohemiancoding.com/sketch -->
    <title>FF06176D-D295-4462-9CDE-94F4AFC2AE45</title>
    <desc>Created with sketchtool.</desc>
    <defs>
        <path d="M57.5516373,28.9432836 C57.5516373,12.9583495 44.6682644,0 28.7758186,0 C12.8833728,0 0,12.9583495 0,28.9432836 C0,44.9282177 12.8833728,57.8865672 28.7758186,57.8865672 C44.6682644,57.8865672 57.5516373,44.9282177 57.5516373,28.9432836 Z" id="path-1"></path>
        <filter x="-50%" y="-50%" width="200%" height="200%" filterUnits="objectBoundingBox" id="filter-2">
            <feOffset dx="0" dy="2" in="SourceAlpha" result="shadowOffsetOuter1"></feOffset>
            <feGaussianBlur stdDeviation="1.5" in="shadowOffsetOuter1" result="shadowBlurOuter1"></feGaussianBlur>
            <feColorMatrix values="0 0 0 0 0   0 0 0 0 0   0 0 0 0 0  0 0 0 0.2 0" type="matrix" in="shadowBlurOuter1"></feColorMatrix>
        </filter>
        <filter x="-50%" y="-50%" width="200%" height="200%" filterUnits="objectBoundingBox" id="filter-3">
            <feGaussianBlur stdDeviation="5" in="SourceAlpha" result="shadowBlurInner1"></feGaussianBlur>
            <feOffset dx="0" dy="2" in="shadowBlurInner1" result="shadowOffsetInner1"></feOffset>
            <feComposite in="shadowOffsetInner1" in2="SourceAlpha" operator="arithmetic" k2="-1" k3="1" result="shadowInnerInner1"></feComposite>
            <feColorMatrix values="0 0 0 0 0   0 0 0 0 0   0 0 0 0 0  0 0 0 0.5 0" type="matrix" in="shadowInnerInner1"></feColorMatrix>
        </filter>
        <filter x="-50%" y="-50%" width="200%" height="200%" filterUnits="objectBoundingBox" id="filter-4">
            <feOffset dx="0" dy="2" in="SourceAlpha" result="shadowOffsetOuter1"></feOffset>
            <feGaussianBlur stdDeviation="1" in="shadowOffsetOuter1" result="shadowBlurOuter1"></feGaussianBlur>
            <feColorMatrix values="0 0 0 0 0   0 0 0 0 0   0 0 0 0 0  0 0 0 0.253623188 0" type="matrix" in="shadowBlurOuter1" result="shadowMatrixOuter1"></feColorMatrix>
            <feMerge>
                <feMergeNode in="shadowMatrixOuter1"></feMergeNode>
                <feMergeNode in="SourceGraphic"></feMergeNode>
            </feMerge>
        </filter>
        <ellipse id="path-5" cx="25.7783375" cy="25.9283582" rx="25.7783375" ry="25.9283582"></ellipse>
        <path d="M60.4799457,32.90907 C60.4799457,17.229706 47.9768113,4.65380788 32.7186592,4.65380788 C17.1300155,4.65380788 4.6268811,17.229706 4.6268811,32.90907 C4.6268811,48.2560192 17.1300155,60.8319173 32.7186592,60.8319173 C47.9768113,60.8319173 60.4799457,48.2560192 60.4799457,32.90907 Z M2.84217094e-14,32.90907 C2.84217094e-14,14.6594789 14.5746596,-2.13162821e-13 32.7186592,-2.13162821e-13 C50.5321672,-2.13162821e-13 65.1068268,14.6594789 65.1068268,32.90907 C65.1068268,50.8262463 50.5321672,65.4857252 32.7186592,65.4857252 C14.5746596,65.4857252 2.84217094e-14,50.8262463 2.84217094e-14,32.90907 Z" id="path-7"></path>
        <filter x="-50%" y="-50%" width="200%" height="200%" filterUnits="objectBoundingBox" id="filter-8">
            <feOffset dx="0" dy="1" in="SourceAlpha" result="shadowOffsetOuter1"></feOffset>
            <feGaussianBlur stdDeviation="0.5" in="shadowOffsetOuter1" result="shadowBlurOuter1"></feGaussianBlur>
            <feColorMatrix values="0 0 0 0 0   0 0 0 0 0   0 0 0 0 0  0 0 0 0.2 0" type="matrix" in="shadowBlurOuter1"></feColorMatrix>
        </filter>
        <path d="M53.5396241,39.2249522 C53.5396241,27.6589301 44.2177606,18.2828167 32.7186592,18.2828167 C21.2195578,18.2828167 11.8976942,27.6589301 11.8976942,39.2249522 C11.8976942,50.7909742 21.2195578,60.1670876 32.7186592,60.1670876 C44.2177606,60.1670876 53.5396241,50.7909742 53.5396241,39.2249522 Z M7.27081315,39.2249522 C7.27081315,25.088703 18.6642019,13.6290088 32.7186592,13.6290088 C46.7731164,13.6290088 58.1665052,25.088703 58.1665052,39.2249522 C58.1665052,53.3612013 46.7731164,64.8208955 32.7186592,64.8208955 C18.6642019,64.8208955 7.27081315,53.3612013 7.27081315,39.2249522 Z" id="path-9"></path>
        <filter x="-50%" y="-50%" width="200%" height="200%" filterUnits="objectBoundingBox" id="filter-10">
            <feOffset dx="0" dy="1" in="SourceAlpha" result="shadowOffsetOuter1"></feOffset>
            <feGaussianBlur stdDeviation="0.5" in="shadowOffsetOuter1" result="shadowBlurOuter1"></feGaussianBlur>
            <feColorMatrix values="0 0 0 0 0   0 0 0 0 0   0 0 0 0 0  0 0 0 0.2 0" type="matrix" in="shadowBlurOuter1"></feColorMatrix>
        </filter>
        <path d="M39.3284893,36.5656334 C39.3284893,32.8938803 36.3691676,29.9173364 32.7186592,29.9173364 C29.0681508,29.9173364 26.108829,32.8938803 26.108829,36.5656334 C26.108829,40.2373864 29.0681508,43.2139303 32.7186592,43.2139303 C36.3691676,43.2139303 39.3284893,40.2373864 39.3284893,36.5656334 Z M21.4819479,36.5656334 C21.4819479,30.3236532 26.5127949,25.2635285 32.7186592,25.2635285 C38.9245234,25.2635285 43.9553704,30.3236532 43.9553704,36.5656334 C43.9553704,42.8076135 38.9245234,47.8677382 32.7186592,47.8677382 C26.5127949,47.8677382 21.4819479,42.8076135 21.4819479,36.5656334 Z" id="path-11"></path>
        <filter x="-50%" y="-50%" width="200%" height="200%" filterUnits="objectBoundingBox" id="filter-12">
            <feOffset dx="0" dy="1" in="SourceAlpha" result="shadowOffsetOuter1"></feOffset>
            <feGaussianBlur stdDeviation="0.5" in="shadowOffsetOuter1" result="shadowBlurOuter1"></feGaussianBlur>
            <feColorMatrix values="0 0 0 0 0   0 0 0 0 0   0 0 0 0 0  0 0 0 0.2 0" type="matrix" in="shadowBlurOuter1"></feColorMatrix>
        </filter>
        <path d="M54.7625137,87.7989284 C54.7625137,76.2329064 45.4406502,66.856793 33.9415488,66.856793 C22.4424474,66.856793 13.1205839,76.2329064 13.1205839,87.7989284 C13.1205839,99.3649505 22.4424474,108.741064 33.9415488,108.741064 C45.4406502,108.741064 54.7625137,99.3649505 54.7625137,87.7989284 Z M8.49370277,87.7989284 C8.49370277,73.6626793 19.8870915,62.2029851 33.9415488,62.2029851 C47.9960061,62.2029851 59.3893948,73.6626793 59.3893948,87.7989284 C59.3893948,101.935178 47.9960061,113.394872 33.9415488,113.394872 C19.8870915,113.394872 8.49370277,101.935178 8.49370277,87.7989284 Z" id="path-13"></path>
        <filter x="-50%" y="-50%" width="200%" height="200%" filterUnits="objectBoundingBox" id="filter-14">
            <feOffset dx="0" dy="1" in="SourceAlpha" result="shadowOffsetOuter1"></feOffset>
            <feGaussianBlur stdDeviation="0.5" in="shadowOffsetOuter1" result="shadowBlurOuter1"></feGaussianBlur>
            <feColorMatrix values="0 0 0 0 0   0 0 0 0 0   0 0 0 0 0  0 0 0 0.2 0" type="matrix" in="shadowBlurOuter1"></feColorMatrix>
        </filter>
        <path d="M40.6317639,85.0735814 C40.6317639,81.4018284 37.6724421,78.4252844 34.0219337,78.4252844 C30.3714254,78.4252844 27.4121036,81.4018284 27.4121036,85.0735814 C27.4121036,88.7453344 30.3714254,91.7218784 34.0219337,91.7218784 C37.6724421,91.7218784 40.6317639,88.7453344 40.6317639,85.0735814 Z M22.7852225,85.0735814 C22.7852225,78.8316013 27.8160695,73.7714766 34.0219337,73.7714766 C40.227798,73.7714766 45.258645,78.8316013 45.258645,85.0735814 C45.258645,91.3155616 40.227798,96.3756863 34.0219337,96.3756863 C27.8160695,96.3756863 22.7852225,91.3155616 22.7852225,85.0735814 Z" id="path-15"></path>
        <filter x="-50%" y="-50%" width="200%" height="200%" filterUnits="objectBoundingBox" id="filter-16">
            <feOffset dx="0" dy="1" in="SourceAlpha" result="shadowOffsetOuter1"></feOffset>
            <feGaussianBlur stdDeviation="0.5" in="shadowOffsetOuter1" result="shadowBlurOuter1"></feGaussianBlur>
            <feColorMatrix values="0 0 0 0 0   0 0 0 0 0   0 0 0 0 0  0 0 0 0.2 0" type="matrix" in="shadowBlurOuter1"></feColorMatrix>
        </filter>
    </defs>
    <g id="Raccoon-Web" stroke="none" stroke-width="1" fill="none" fill-rule="evenodd">
        <g id="ESP" transform="translate(-922.000000, -155.000000)">
            <g id="Group-28" transform="translate(923.000000, 155.000000)">
                <g id="Group-23-Copy" transform="translate(23.380353, 0.000000)">
                    <g id="Group-22">
                        <ellipse id="Oval-2" fill="#FFCA29" cx="36.2695214" cy="36.480597" rx="36.2695214" ry="36.480597"></ellipse>
                        <g id="Group-21-Copy" transform="translate(7.493703, 7.537313)">
                            <g id="Mask">
                                <use fill="black" fill-opacity="1" filter="url(#filter-2)" xlink:href="#path-1"></use>
                                <use fill="#2D2D2D" fill-rule="evenodd" xlink:href="#path-1"></use>
                                <use fill="black" fill-opacity="1" filter="url(#filter-3)" xlink:href="#path-1"></use>
                            </g>
                            <g id="Group-20" filter="url(#filter-4)" transform="translate(2.997481, 3.014925)">
                                <mask id="mask-6" fill="white">
                                    <use xlink:href="#path-5"></use>
                                </mask>
                                <use id="Mask" fill="#353535" xlink:href="#path-5"></use>
                                <g mask="url(#mask-6)">
                                    <g transform="translate(-8.243596, -31.554791)">
                                        <g id="Group-18" stroke-width="1" fill="none" fill-rule="evenodd" transform="translate(33.410101, 33.790765) rotate(-180.000000) translate(-33.410101, -33.790765) translate(0.410101, 0.790765)">
                                            <g id="Oval-3-Copy-6" transform="translate(32.553413, 32.742863) scale(1, -1) translate(-32.553413, -32.742863) ">
                                                <use fill="black" fill-opacity="1" filter="url(#filter-8)" xlink:href="#path-7"></use>
                                                <use fill="#48494B" fill-rule="evenodd" xlink:href="#path-7"></use>
                                            </g>
                                            <g id="Oval-3-Copy-7" transform="translate(32.718659, 39.224952) scale(1, -1) translate(-32.718659, -39.224952) ">
                                                <use fill="black" fill-opacity="1" filter="url(#filter-10)" xlink:href="#path-9"></use>
                                                <use fill="#48494B" fill-rule="evenodd" xlink:href="#path-9"></use>
                                            </g>
                                            <g id="Oval-3-Copy-8" transform="translate(32.718659, 36.565633) scale(1, -1) translate(-32.718659, -36.565633) ">
                                                <use fill="black" fill-opacity="1" filter="url(#filter-12)" xlink:href="#path-11"></use>
                                                <use fill="#48494B" fill-rule="evenodd" xlink:href="#path-11"></use>
                                            </g>
                                        </g>
                                        <path d="M61.7832203,81.4170181 C61.7832203,65.7376541 49.2800859,53.1617559 34.0219337,53.1617559 C18.4332901,53.1617559 5.93015565,65.7376541 5.93015565,81.4170181 C5.93015565,96.7639672 18.4332901,109.339865 34.0219337,109.339865 C49.2800859,109.339865 61.7832203,96.7639672 61.7832203,81.4170181 Z M1.30327456,81.4170181 C1.30327456,63.167427 15.8779342,48.507948 34.0219337,48.507948 C51.8354418,48.507948 66.4101014,63.167427 66.4101014,81.4170181 C66.4101014,99.3341943 51.8354418,113.993673 34.0219337,113.993673 C15.8779342,113.993673 1.30327456,99.3341943 1.30327456,81.4170181 Z" id="Oval-3" fill="#E9E9E9" fill-rule="evenodd"></path>
                                        <g id="Oval-3-Copy" fill="none">
                                            <use fill="black" fill-opacity="1" filter="url(#filter-14)" xlink:href="#path-13"></use>
                                            <use fill="#E8E8E8" fill-rule="evenodd" xlink:href="#path-13"></use>
                                        </g>
                                        <g id="Oval-3-Copy-2" fill="none">
                                            <use fill="black" fill-opacity="1" filter="url(#filter-16)" xlink:href="#path-15"></use>
                                            <use fill="#E8E8E8" fill-rule="evenodd" xlink:href="#path-15"></use>
                                        </g>
                                        <path d="M38.539461,57.6493564 C38.539461,55.231669 36.5908782,53.2717461 34.1871795,53.2717461 C31.7834808,53.2717461 29.834898,55.231669 29.834898,57.6493564 C29.834898,60.0670438 31.7834808,62.0269666 34.1871795,62.0269666 C36.5908782,62.0269666 38.539461,60.0670438 38.539461,57.6493564 Z M25.098663,57.6493564 C25.098663,52.600696 29.1677305,48.507948 34.1871795,48.507948 C39.2066285,48.507948 43.2756959,52.600696 43.2756959,57.6493564 C43.2756959,62.6980168 39.2066285,66.7907647 34.1871795,66.7907647 C29.1677305,66.7907647 25.098663,62.6980168 25.098663,57.6493564 Z M34.2525092,51.6873983 L39.7841504,51.6873983 L39.7841504,57.2512316 L36.3437855,57.2512316 C35.1888055,57.2512316 34.2525092,56.3074031 34.2525092,55.1477848 L34.2525092,51.6873983 Z" id="Combined-Shape" fill="#E9E9E9" fill-rule="evenodd"></path>
                                    </g>
                                </g>
                            </g>
                        </g>
                    </g>
                </g>
                <g id="Group-27" transform="translate(0.000000, 88.035821)" fill="#E8E8E8">
                    <g id="Group-24" transform="translate(0.000000, 0.301493)" stroke="#E8E8E8" stroke-width="0.5">
                        <path d="M0.22978737,12.0597015 L0.22978737,0.396297808 L4.54217914,0.396297808 C5.22129935,0.396297808 5.81269099,0.493064953 6.31637181,0.686602146 C6.83703064,0.885831609 7.2614744,1.14767212 7.58971584,1.47213153 C7.94059461,1.81366775 8.1980905,2.20073633 8.36221121,2.63334888 C8.52633193,3.06026916 8.60839106,3.53272051 8.60839106,4.05071712 C8.60839106,4.81348135 8.4442728,5.47377481 8.11603137,6.0316173 C7.78778993,6.59515207 7.32090179,7.04768078 6.71535294,7.389217 L9.28750787,12.0597015 L6.40126141,12.0597015 L4.24506553,7.77344333 L2.78496438,7.77344333 L2.78496438,12.0597015 L0.22978737,12.0597015 Z M2.92752037,5.60028277 L4.54891176,5.60028277 C5.02995524,5.60028277 5.41195463,5.45513205 5.69492138,5.16482626 C5.9722288,4.88021274 6.11088043,4.51306681 6.11088043,4.06337745 C6.11088043,3.58522674 5.9722288,3.20669644 5.69492138,2.92777519 C5.41761396,2.64885394 5.03561458,2.50939541 4.54891176,2.50939541 L2.92752037,2.50939541 L2.92752037,5.60028277 Z M10.121475,12.0623513 L14.4508447,0.398947645 L17.3540691,0.398947645 L21.5985492,12.0623513 L18.7292806,12.0623513 L17.8464288,9.38984375 L13.75475,9.38984375 L12.8718981,12.0623513 L10.121475,12.0623513 Z M14.6176967,7.21668319 L17.4699873,7.21668319 L16.0608199,2.81088794 L14.6176967,7.21668319 Z M22.796078,3.84579641 C23.0847041,3.10010899 23.4921701,2.44835381 24.0184883,1.89051131 C24.5391471,1.34405335 25.1729831,0.90575511 25.9200153,0.575603428 C26.6444102,0.256836287 27.4565126,0.0974551073 28.3563469,0.0974551073 C29.4203019,0.0974551073 30.3625671,0.296681582 31.1831707,0.695140508 C31.9811369,1.08221489 32.651758,1.65427949 33.1950542,2.41135145 L31.4038836,4.13610075 C31.0586642,3.65225776 30.6455389,3.259497 30.1644954,2.95780667 C29.6947706,2.66180861 29.1288456,2.5138118 28.4667034,2.5138118 C27.9347259,2.5138118 27.4650081,2.61057895 27.057536,2.80411614 C26.6274265,3.00903787 26.2737234,3.27372447 25.996416,3.59818389 C25.6908119,3.95679692 25.4672715,4.34955768 25.3257881,4.77647796 C25.1673268,5.24324413 25.0880973,5.71854158 25.0880973,6.20238456 C25.0880973,6.69761208 25.1673268,7.17575562 25.3257881,7.63682952 C25.4729308,8.06944207 25.6964712,8.45366456 25.996416,8.78950851 C26.2850421,9.11396792 26.633086,9.37011625 27.0405581,9.55796117 C27.4480302,9.74580609 27.9064295,9.83972715 28.4157696,9.83972715 C28.8345604,9.83972715 29.1967524,9.79703576 29.5023565,9.7116517 C29.796642,9.62626765 30.068286,9.50957785 30.3172967,9.36157882 C30.5549888,9.21357979 30.7672107,9.04281425 30.9539687,8.84927705 L31.4887732,8.26866838 L33.2799438,9.90803405 C33.0309331,10.2552625 32.7366521,10.5740249 32.397092,10.8643307 C32.0631912,11.1546365 31.6755326,11.4136309 31.2341044,11.6413217 C30.8153136,11.8633203 30.359744,12.0369319 29.8673818,12.1621618 C29.363701,12.2930841 28.8487092,12.3585442 28.3223911,12.3585442 C27.4508535,12.3585442 26.6472399,12.2077013 25.9115264,11.906011 C25.1927908,11.6100129 24.5617844,11.1859451 24.0184883,10.6337949 C23.4921701,10.0930292 23.0847041,9.4526584 22.796078,8.71266325 C22.5074519,7.9726681 22.363141,7.15868564 22.363141,6.27069146 C22.363141,5.40546637 22.5074519,4.5971761 22.796078,3.84579641 Z M34.6296885,3.84579641 C34.9183146,3.10010899 35.3257806,2.44835381 35.8520987,1.89051131 C36.3727576,1.34405335 37.0065936,0.90575511 37.7536258,0.575603428 C38.4780207,0.256836287 39.2901231,0.0974551073 40.1899574,0.0974551073 C41.2539124,0.0974551073 42.1961775,0.296681582 43.0167811,0.695140508 C43.8147474,1.08221489 44.4853685,1.65427949 45.0286647,2.41135145 L43.2374941,4.13610075 C42.8922747,3.65225776 42.4791494,3.259497 41.9981059,2.95780667 C41.5283811,2.66180861 40.9624561,2.5138118 40.3003139,2.5138118 C39.7683364,2.5138118 39.2986186,2.61057895 38.8911465,2.80411614 C38.461037,3.00903787 38.1073339,3.27372447 37.8300265,3.59818389 C37.5244224,3.95679692 37.300882,4.34955768 37.1593986,4.77647796 C37.0009372,5.24324413 36.9217077,5.71854158 36.9217077,6.20238456 C36.9217077,6.69761208 37.0009372,7.17575562 37.1593986,7.63682952 C37.3065413,8.06944207 37.5300817,8.45366456 37.8300265,8.78950851 C38.1186526,9.11396792 38.4666964,9.37011625 38.8741686,9.55796117 C39.2816407,9.74580609 39.74004,9.83972715 40.2493801,9.83972715 C40.6681709,9.83972715 41.0303629,9.79703576 41.335967,9.7116517 C41.6302524,9.62626765 41.9018965,9.50957785 42.1509072,9.36157882 C42.3885993,9.21357979 42.6008211,9.04281425 42.7875792,8.84927705 L43.3223837,8.26866838 L45.1135543,9.90803405 C44.8645436,10.2552625 44.5702625,10.5740249 44.2307024,10.8643307 C43.8968017,11.1546365 43.509143,11.4136309 43.0677149,11.6413217 C42.6489241,11.8633203 42.1933545,12.0369319 41.7009923,12.1621618 C41.1973115,12.2930841 40.6823197,12.3585442 40.1560016,12.3585442 C39.284464,12.3585442 38.4808504,12.2077013 37.7451369,11.906011 C37.0264013,11.6100129 36.3953949,11.1859451 35.8520987,10.6337949 C35.3257806,10.0930292 34.9183146,9.4526584 34.6296885,8.71266325 C34.3410624,7.9726681 34.1967515,7.15868564 34.1967515,6.27069146 C34.1967515,5.40546637 34.3410624,4.5971761 34.6296885,3.84579641 Z M73.3223689,12.0597015 L73.3223689,0.396297808 L75.8266122,0.396297808 L80.8520766,7.96982568 L80.8520766,0.396297808 L83.4412095,0.396297808 L83.4412095,12.0597015 L81.0558117,12.0597015 L75.9115018,4.34955982 L75.9115018,12.0597015 L73.3223689,12.0597015 Z M87.8300019,12.0597015 L92.1593716,0.396297808 L95.0625959,0.396297808 L99.307076,12.0597015 L96.4378075,12.0597015 L95.5549556,9.38719391 L91.4632768,9.38719391 L90.580425,12.0597015 L87.8300019,12.0597015 Z M92.074482,7.33798682 L94.9267726,7.33798682 L93.5176052,2.93219158 L92.074482,7.33798682 Z M100.571931,12.0597015 L100.571931,0.396297808 L104.799433,0.396297808 C105.523828,0.396297808 106.137857,0.50160323 106.641538,0.712217234 C107.150878,0.922831238 107.569662,1.19890221 107.897904,1.54043843 C108.231804,1.88766693 108.475152,2.28611988 108.627954,2.73580924 C108.786416,3.20257541 108.865645,3.67502676 108.865645,4.15317747 C108.865645,4.77932721 108.758119,5.33146916 108.543065,5.80961987 C108.32801,6.27638604 108.039388,6.6691468 107.677191,6.98791395 C107.314993,7.30098882 106.893379,7.54006059 106.412336,7.70513643 C105.931292,7.87021227 105.433278,7.95274895 104.918279,7.95274895 L103.127108,7.95274895 L103.127108,12.0597015 L100.571931,12.0597015 Z M103.127108,5.81815823 L104.655121,5.81815823 C105.153142,5.81815823 105.540801,5.67016142 105.818108,5.37416336 C106.101075,5.07247303 106.242556,4.68255836 106.242556,4.20440765 C106.242556,3.7148724 106.098246,3.31641945 105.80962,3.00903685 C105.520993,2.70165425 105.130505,2.54796525 104.638143,2.54796525 L103.127108,2.54796525 L103.127108,5.81815823 Z M110.614371,12.0597015 L110.614371,0.396297808 L114.841873,0.396297808 C115.566268,0.396297808 116.180297,0.50160323 116.683977,0.712217234 C117.193318,0.922831238 117.612102,1.19890221 117.940344,1.54043843 C118.274244,1.88766693 118.517592,2.28611988 118.670394,2.73580924 C118.828856,3.20257541 118.908085,3.67502676 118.908085,4.15317747 C118.908085,4.77932721 118.800559,5.33146916 118.585505,5.80961987 C118.37045,6.27638604 118.081828,6.6691468 117.719631,6.98791395 C117.357433,7.30098882 116.935819,7.54006059 116.454776,7.70513643 C115.973732,7.87021227 115.475718,7.95274895 114.960719,7.95274895 L113.169548,7.95274895 L113.169548,12.0597015 L110.614371,12.0597015 Z M113.169548,5.81815823 L114.697561,5.81815823 C115.195582,5.81815823 115.583241,5.67016142 115.860548,5.37416336 C116.143515,5.07247303 116.284996,4.68255836 116.284996,4.20440765 C116.284996,3.7148724 116.140685,3.31641945 115.852059,3.00903685 C115.563433,2.70165425 115.172945,2.54796525 114.680583,2.54796525 L113.169548,2.54796525 L113.169548,5.81815823 Z" id="RACCOON-APP"></path>
                    </g>
                    <path d="M55.0924605,6.48208955 C55.0924605,4.76772941 53.7107381,3.37796592 52.0062972,3.37796592 C50.3018563,3.37796592 48.920134,4.76772941 48.920134,6.48208955 C48.920134,8.1964497 50.3018563,9.58621319 52.0062972,9.58621319 C53.7107381,9.58621319 55.0924605,8.1964497 55.0924605,6.48208955 Z M45.5617128,6.48208955 C45.5617128,2.90213035 48.4470516,0 52.0062972,0 C55.5655429,0 58.4508816,2.90213035 58.4508816,6.48208955 C58.4508816,10.0620488 55.5655429,12.9641791 52.0062972,12.9641791 C48.4470516,12.9641791 45.5617128,10.0620488 45.5617128,6.48208955 Z M52.0526219,2.25451928 L55.9750584,2.25451928 L55.9750584,6.1997829 L54.0138402,6.1997829 C52.9306892,6.1997829 52.0526219,5.32420103 52.0526219,4.23870942 L52.0526219,2.25451928 Z" id="Combined-Shape"></path>
                    <path d="M68.5811255,6.48208955 C68.5811255,4.76772941 67.1994031,3.37796592 65.4949622,3.37796592 C63.7905213,3.37796592 62.4087989,4.76772941 62.4087989,6.48208955 C62.4087989,8.1964497 63.7905213,9.58621319 65.4949622,9.58621319 C67.1994031,9.58621319 68.5811255,8.1964497 68.5811255,6.48208955 Z M59.0503778,6.48208955 C59.0503778,2.90213035 61.9357165,0 65.4949622,0 C69.0542079,0 71.9395466,2.90213035 71.9395466,6.48208955 C71.9395466,10.0620488 69.0542079,12.9641791 65.4949622,12.9641791 C61.9357165,12.9641791 59.0503778,10.0620488 59.0503778,6.48208955 Z M65.5412869,2.25451928 L69.4637234,2.25451928 L69.4637234,6.1997829 L67.5025052,6.1997829 C66.4193542,6.1997829 65.5412869,5.32420103 65.5412869,4.23870942 L65.5412869,2.25451928 Z" id="Combined-Shape-Copy-5"></path>
                </g>
            </g>
        </g>
    </g>
</svg>